<?xml version="1.0" encoding="UTF-8" standalone="no"?>
<!-- Generator: Adobe Illustrator 16.0.0, SVG Export Plug-In . SVG Version: 6.00 Build 0)  -->

<svg
   version="1.1"
   id="Capa_1"
   x="0px"
   y="0px"
   width="438.549px"
   height="438.549px"
   viewBox="0 0 438.549 438.549"
   style="enable-background:new 0 0 438.549 438.549;"
   xml:space="preserve"
   sodipodi:docname="github-logo.svg"
   inkscape:version="1.1.1 (3bf5ae0d25, 2021-09-20)"
   xmlns:inkscape="http://www.inkscape.org/namespaces/inkscape"
   xmlns:sodipodi="http://sodipodi.sourceforge.net/DTD/sodipodi-0.dtd"
   xmlns="http://www.w3.org/2000/svg"
   xmlns:svg="http://www.w3.org/2000/svg"><defs
   id="defs39" /><sodipodi:namedview
   id="namedview37"
   pagecolor="#ffffff"
   bordercolor="#666666"
   borderopacity="1.0"
   inkscape:pageshadow="2"
   inkscape:pageopacity="0.0"
   inkscape:pagecheckerboard="0"
   showgrid="false"
   inkscape:zoom="1.6577395"
   inkscape:cx="219.27451"
   inkscape:cy="216.86158"
   inkscape:window-width="1920"
   inkscape:window-height="1015"
   inkscape:window-x="0"
   inkscape:window-y="37"
   inkscape:window-maximized="1"
   inkscape:current-layer="Capa_1" />
<g
   id="g4">
	<path
   d="M409.132,114.573c-19.608-33.596-46.205-60.194-79.798-79.8C295.736,15.166,259.057,5.365,219.271,5.365   c-39.781,0-76.472,9.804-110.063,29.408c-33.596,19.605-60.192,46.204-79.8,79.8C9.803,148.168,0,184.854,0,224.63   c0,47.78,13.94,90.745,41.827,128.906c27.884,38.164,63.906,64.572,108.063,79.227c5.14,0.954,8.945,0.283,11.419-1.996   c2.475-2.282,3.711-5.14,3.711-8.562c0-0.571-0.049-5.708-0.144-15.417c-0.098-9.709-0.144-18.179-0.144-25.406l-6.567,1.136   c-4.187,0.767-9.469,1.092-15.846,1c-6.374-0.089-12.991-0.757-19.842-1.999c-6.854-1.231-13.229-4.086-19.13-8.559   c-5.898-4.473-10.085-10.328-12.56-17.556l-2.855-6.57c-1.903-4.374-4.899-9.233-8.992-14.559   c-4.093-5.331-8.232-8.945-12.419-10.848l-1.999-1.431c-1.332-0.951-2.568-2.098-3.711-3.429c-1.142-1.331-1.997-2.663-2.568-3.997   c-0.572-1.335-0.098-2.43,1.427-3.289c1.525-0.859,4.281-1.276,8.28-1.276l5.708,0.853c3.807,0.763,8.516,3.042,14.133,6.851   c5.614,3.806,10.229,8.754,13.846,14.842c4.38,7.806,9.657,13.754,15.846,17.847c6.184,4.093,12.419,6.136,18.699,6.136   c6.28,0,11.704-0.476,16.274-1.423c4.565-0.952,8.848-2.383,12.847-4.285c1.713-12.758,6.377-22.559,13.988-29.41   c-10.848-1.14-20.601-2.857-29.264-5.14c-8.658-2.286-17.605-5.996-26.835-11.14c-9.235-5.137-16.896-11.516-22.985-19.126   c-6.09-7.614-11.088-17.61-14.987-29.979c-3.901-12.374-5.852-26.648-5.852-42.826c0-23.035,7.52-42.637,22.557-58.817   c-7.044-17.318-6.379-36.732,1.997-58.24c5.52-1.715,13.706-0.428,24.554,3.853c10.85,4.283,18.794,7.952,23.84,10.994   c5.046,3.041,9.089,5.618,12.135,7.708c17.705-4.947,35.976-7.421,54.818-7.421s37.117,2.474,54.823,7.421l10.849-6.849   c7.419-4.57,16.18-8.758,26.262-12.565c10.088-3.805,17.802-4.853,23.134-3.138c8.562,21.509,9.325,40.922,2.279,58.24   c15.036,16.18,22.559,35.787,22.559,58.817c0,16.178-1.958,30.497-5.853,42.966c-3.9,12.471-8.941,22.457-15.125,29.979   c-6.191,7.521-13.901,13.85-23.131,18.986c-9.232,5.14-18.182,8.85-26.84,11.136c-8.662,2.286-18.415,4.004-29.263,5.146   c9.894,8.562,14.842,22.077,14.842,40.539v60.237c0,3.422,1.19,6.279,3.572,8.562c2.379,2.279,6.136,2.95,11.276,1.995   c44.163-14.653,80.185-41.062,108.068-79.226c27.88-38.161,41.825-81.126,41.825-128.906   C438.536,184.851,428.728,148.168,409.132,114.573z"
   id="path2" />
</g>
<g
   id="g6">
</g>
<g
   id="g8">
</g>
<g
   id="g10">
</g>
<g
   id="g12">
</g>
<g
   id="g14">
</g>
<g
   id="g16">
</g>
<g
   id="g18">
</g>
<g
   id="g20">
</g>
<g
   id="g22">
</g>
<g
   id="g24">
</g>
<g
   id="g26">
</g>
<g
   id="g28">
</g>
<g
   id="g30">
</g>
<g
   id="g32">
</g>
<g
   id="g34">
</g>
<path
   style="fill:#f9f9f9;stroke-width:0.603231"
   d="m 149.60131,432.16592 c -9.0157,-2.44973 -30.33192,-12.06116 -41.92456,-18.90369 C 57.003008,383.35214 18.471545,330.7438 5.7730712,274.1296 2.0672283,257.60766 0.5806664,243.53668 0.57860594,224.96165 0.57536267,195.72325 4.6832169,172.42051 14.288631,147.18839 41.451784,75.834468 104.48774,22.991547 178.67411,9.3843502 c 25.28209,-4.637217 54.2096,-4.7560849 79.71278,-0.3275529 23.24649,4.0366667 47.17485,12.6570467 68.26275,24.5921927 7.79842,4.413682 23.00702,14.729535 30.15992,20.457197 9.12185,7.304296 22.62374,20.595534 30.16523,29.694593 27.68971,33.40857 43.79664,70.07797 49.57018,112.85256 1.5709,11.63835 1.57694,44.32368 0.0104,56.23699 -6.03321,45.88163 -24.90215,85.71196 -57.54726,121.47618 -13.41656,14.69847 -30.31133,28.33813 -48.25476,38.95752 -11.70213,6.92563 -33.20205,16.56677 -42.05194,18.85721 -6.18222,1.60001 -10.81073,-0.0709 -13.27393,-4.792 -1.22643,-2.35061 -1.26788,-3.40226 -1.60483,-40.7181 -0.29581,-32.75905 -0.48844,-38.83873 -1.33041,-41.99023 -2.37743,-8.89874 -5.67703,-15.45153 -10.42904,-20.71145 -1.26253,-1.39746 -1.85741,-2.44868 -1.38675,-2.45055 2.99043,-0.0119 18.76191,-2.77712 25.45646,-4.46335 23.03777,-5.80279 42.92772,-17.9777 54.245,-33.2041 8.73118,-11.74703 15.22687,-29.93501 18.00033,-50.40102 1.17799,-8.6927 1.04871,-29.78832 -0.22447,-36.63034 -2.7667,-14.86806 -10.59236,-31.28265 -19.23915,-40.35479 l -1.79458,-1.88285 1.53165,-5.05431 c 0.84241,-2.77987 1.84476,-7.09021 2.22743,-9.57853 0.97302,-6.32695 0.3489,-21.22502 -1.16246,-27.74864 -1.58059,-6.82245 -4.31164,-14.986065 -5.3662,-16.04064 -1.15688,-1.156877 -9.54033,-1.109336 -14.59794,0.08277 -9.48956,2.236751 -26.53355,10.00068 -38.7363,17.64526 l -7.02662,4.40194 -4.73638,-1.20646 c -6.38716,-1.62697 -19.54873,-3.99087 -27.65914,-4.96777 -8.73496,-1.05213 -35.90415,-1.05213 -44.63911,0 -8.09279,0.97478 -21.26806,3.33981 -27.62236,4.95837 l -4.69958,1.19707 -6.4602,-4.06342 c -11.47787,-7.2195 -29.51348,-15.30503 -39.45659,-17.688746 -4.86539,-1.166408 -12.04961,-1.593537 -14.02876,-0.834063 -1.18159,0.453412 -2.30018,3.0298 -4.27918,9.855949 -4.473639,15.43086 -4.550056,32.10911 -0.20691,45.16025 l 1.27517,3.8319 -1.818358,1.90739 c -8.669674,9.09415 -16.492912,25.49337 -19.262937,40.37932 -1.25565,6.74776 -1.400479,27.74705 -0.252633,36.63034 2.442036,18.89921 8.179566,35.54285 16.623396,48.22174 4.646842,6.97749 13.022552,15.2649 20.330182,20.11586 6.41651,4.25941 19.4477,10.54606 27.02489,13.03764 6.36122,2.09174 20.40143,5.08499 28.84506,6.14951 l 5.5695,0.70216 -3.01914,3.30343 c -4.00614,4.38335 -7.51827,11.78216 -9.24263,19.47095 -1.33795,5.96577 -1.4507,6.19604 -3.44798,7.04191 -8.0808,3.42227 -22.54331,5.48467 -30.52982,4.35364 -7.36714,-1.04332 -15.04908,-5.1629 -21.33711,-11.44244 -1.84934,-1.84683 -5.4824,-6.58187 -8.07347,-10.52232 -2.59107,-3.94044 -6.096306,-8.62915 -7.789406,-10.41935 -3.345599,-3.53747 -11.146529,-9.0059 -15.755962,-11.04487 -6.080214,-2.68957 -16.271568,-3.3225 -20.072666,-1.24662 -3.54637,1.93677 -0.0552,7.70513 7.812446,12.90822 8.880762,5.8731 16.423383,15.45505 21.529571,27.35063 5.953234,13.86889 9.156759,18.2927 17.043627,23.53587 8.71527,5.7939 17.74813,7.99438 34.98181,8.52186 9.65783,0.2956 15.32772,-0.0759 22.3883,-1.46696 l 1.65888,-0.32682 v 21.20787 c 0,22.34803 -0.153,23.76772 -2.88693,26.78868 -2.58238,2.85351 -7.28657,3.80827 -12.19385,2.47489 z"
   id="path412" /></svg>
